<?xml version="1.0" encoding="UTF-8"?>
<svg id="Layer_2" data-name="Layer 2" xmlns="http://www.w3.org/2000/svg" viewBox="0 0 866.73 141.81">
  <path d="M59.33,80.7l-17.81-3.75c-5.06-1.12-8.75-2.66-11.06-4.59-2.31-1.94-3.47-4.44-3.47-7.5,0-3.5,1.69-6.39,5.06-8.67,3.37-2.28,7.65-3.42,12.84-3.42,5.56,0,9.94,1.31,13.12,3.94,3.19,2.62,5.25,5.81,6.19,9.56l21.84-3.28c-1.12-5.75-3.45-10.73-6.98-14.95-3.53-4.22-8.19-7.5-13.97-9.84-5.78-2.34-12.64-3.52-20.57-3.52s-15.59,1.3-21.84,3.89c-6.25,2.59-11.12,6.25-14.62,10.97-3.5,4.72-5.25,10.26-5.25,16.64,0,7.62,2.44,13.87,7.31,18.75,4.87,4.87,12.22,8.37,22.03,10.5l17.62,3.75c4.62,1,8.11,2.47,10.45,4.41,2.34,1.94,3.52,4.41,3.52,7.4,0,3.5-1.73,6.44-5.2,8.81-3.47,2.38-8.17,3.56-14.11,3.56s-10.62-1.27-14.25-3.8c-3.63-2.53-6.03-6.36-7.22-11.48l-22.96,3.37c1.06,6.5,3.56,12.01,7.5,16.54,3.94,4.53,9.03,7.97,15.28,10.31,6.25,2.34,13.37,3.52,21.37,3.52,8.68,0,16.36-1.39,23.01-4.17,6.65-2.78,11.87-6.64,15.65-11.58,3.78-4.94,5.67-10.72,5.67-17.34,0-7.31-2.39-13.28-7.17-17.9-4.78-4.62-12.11-8-21.98-10.12Z"/>
  <path d="M179.82,41.38c-7.47-4.47-16.26-6.7-26.39-6.7s-18.83,2.24-26.29,6.7c-7.47,4.47-13.25,10.73-17.34,18.79s-6.14,17.43-6.14,28.12,2.05,20.04,6.14,28.07c4.09,8.03,9.87,14.28,17.34,18.75,7.47,4.47,16.23,6.7,26.29,6.7s18.92-2.23,26.39-6.7c7.47-4.47,13.25-10.72,17.34-18.75,4.09-8.03,6.14-17.39,6.14-28.07s-2.05-20.06-6.14-28.12c-4.09-8.06-9.87-14.33-17.34-18.79ZM175.89,105.49c-1.91,5.09-4.73,9.12-8.48,12.09-3.75,2.97-8.4,4.45-13.97,4.45s-10.12-1.48-13.87-4.45c-3.75-2.97-6.56-7-8.44-12.09-1.87-5.09-2.81-10.83-2.81-17.2s.94-12.29,2.81-17.39c1.88-5.09,4.69-9.11,8.44-12.05,3.75-2.94,8.37-4.41,13.87-4.41s10.22,1.47,13.97,4.41c3.75,2.94,6.58,6.95,8.48,12.05,1.91,5.09,2.86,10.89,2.86,17.39s-.95,12.11-2.86,17.2Z"/>
  <path d="M297.5,39.27c-5.38-3.06-11.62-4.59-18.75-4.59-8.56,0-15.7,2.28-21.42,6.84-4.29,3.42-7.8,8.09-10.52,14.01l-.21-19.35h-23.15v103.48h24.18v-60.18c0-5.25.97-9.65,2.91-13.22,1.94-3.56,4.58-6.26,7.92-8.11,3.34-1.84,7.14-2.76,11.39-2.76,6.44,0,11.45,1.97,15.04,5.91,3.59,3.94,5.39,9.47,5.39,16.59v61.77h24.18v-65.52c0-8.44-1.48-15.59-4.45-21.46-2.97-5.87-7.14-10.34-12.51-13.4Z"/>
  <path d="M410.78,41.38c-7.47-4.47-16.26-6.7-26.38-6.7s-18.83,2.24-26.29,6.7c-7.47,4.47-13.25,10.73-17.34,18.79s-6.14,17.43-6.14,28.12,2.05,20.04,6.14,28.07c4.09,8.03,9.87,14.28,17.34,18.75,7.47,4.47,16.23,6.7,26.29,6.7s18.92-2.23,26.38-6.7c7.47-4.47,13.25-10.72,17.34-18.75,4.09-8.03,6.14-17.39,6.14-28.07s-2.05-20.06-6.14-28.12-9.87-14.33-17.34-18.79ZM406.84,105.49c-1.91,5.09-4.73,9.12-8.48,12.09-3.75,2.97-8.41,4.45-13.97,4.45s-10.12-1.48-13.87-4.45c-3.75-2.97-6.56-7-8.44-12.09-1.88-5.09-2.81-10.83-2.81-17.2s.94-12.29,2.81-17.39c1.87-5.09,4.69-9.11,8.44-12.05,3.75-2.94,8.37-4.41,13.87-4.41s10.22,1.47,13.97,4.41c3.75,2.94,6.57,6.95,8.48,12.05,1.91,5.09,2.86,10.89,2.86,17.39s-.95,12.11-2.86,17.2Z"/>
  <path d="M584.84,38.52c-5.03-2.75-10.67-4.12-16.92-4.12-5.44,0-10.53,1.03-15.28,3.09-4.75,2.06-8.81,5.11-12.18,9.14-2.35,2.8-4.19,6.08-5.6,9.78-1.9-6.25-4.75-11.25-8.6-14.98-4.84-4.69-11.05-7.03-18.61-7.03-4.62,0-9.05.94-13.26,2.81s-7.91,4.73-11.06,8.58c-2.22,2.7-4.02,5.97-5.45,9.73l-.59-19.34h-22.87v103.48h24.18v-63.08c0-4.69.89-8.62,2.67-11.81,1.78-3.19,4.16-5.61,7.12-7.26,2.97-1.65,6.23-2.48,9.8-2.48,5.19,0,9.45,1.61,12.79,4.83,3.34,3.22,5.02,7.51,5.02,12.89v66.92h23.62v-64.67c0-3.94.76-7.4,2.3-10.4s3.73-5.34,6.61-7.03c2.87-1.69,6.28-2.53,10.22-2.53,5,0,9.28,1.52,12.84,4.55,3.56,3.03,5.34,7.8,5.34,14.29v65.8h24.18v-69.45c0-7.81-1.45-14.36-4.36-19.64-2.91-5.28-6.87-9.29-11.9-12.05Z"/>
  <rect x="625.84" y="36.18" width="24.18" height="103.48"/>
  <polygon points="767 36.18 738.42 36.18 700.46 77.98 698.95 77.98 698.95 0 674.77 0 674.77 139.66 698.95 139.66 698.95 104.95 708.03 95.33 740.29 139.66 769.44 139.66 726.39 80.91 767 36.18"/>
  <path d="M863.12,53.57c-2.41-4.53-5.64-8.19-9.7-10.97-4.06-2.78-8.61-4.79-13.64-6.05-5.03-1.25-10.17-1.87-15.42-1.87-7.37,0-14.07,1.08-20.11,3.23s-11.12,5.34-15.28,9.56c-4.16,4.22-7.08,9.48-8.76,15.79l22.59,3.56c.75-2.44,2.05-4.67,3.89-6.7,1.84-2.03,4.25-3.66,7.22-4.87,2.97-1.22,6.42-1.83,10.36-1.83s7.34.63,10.03,1.87c2.69,1.25,4.73,3.05,6.14,5.39,1.41,2.34,2.11,5.17,2.11,8.48v.56c0,2.31-.86,4.03-2.58,5.16-1.72,1.12-4.45,1.94-8.2,2.44-3.75.5-8.69,1.09-14.81,1.78-5.06.5-9.97,1.34-14.72,2.53-4.75,1.19-9.01,2.92-12.79,5.2-3.78,2.28-6.77,5.33-8.95,9.14-2.19,3.81-3.28,8.66-3.28,14.53,0,6.81,1.53,12.53,4.59,17.15,3.06,4.62,7.23,8.12,12.51,10.5,5.28,2.37,11.23,3.56,17.86,3.56,5.44,0,10.14-.75,14.11-2.25,3.97-1.5,7.3-3.5,9.98-6,2.69-2.5,4.78-5.22,6.28-8.15h.84v14.34h23.34v-69.45c0-6.56-1.2-12.11-3.61-16.64ZM842.74,102.26c0,3.88-.98,7.44-2.95,10.69-1.97,3.25-4.78,5.86-8.44,7.83s-7.98,2.95-12.98,2.95c-3.5,0-6.56-.51-9.18-1.55-2.63-1.03-4.69-2.54-6.19-4.55-1.5-2-2.25-4.47-2.25-7.4,0-3.19.84-5.76,2.53-7.73s3.98-3.53,6.89-4.69c2.91-1.16,6.14-1.98,9.7-2.48,1.75-.19,3.76-.45,6.05-.8,2.28-.34,4.56-.72,6.84-1.12,2.28-.41,4.31-.87,6.09-1.41,1.78-.53,3.08-1.11,3.89-1.73v12Z"/>
  <rect x="535.11" width="114.92" height="12.09"/>
</svg>