<?xml version="1.0" encoding="UTF-8"?>
<svg id="Layer_1" xmlns="http://www.w3.org/2000/svg" version="1.1" viewBox="0 0 15 15">
  <!-- Generator: Adobe Illustrator 29.8.2, SVG Export Plug-In . SVG Version: 2.1.1 Build 3)  -->
  <circle cx="7.5" cy="7.5" r=".7"/>
  <circle cx="4.8" cy="10.2" r=".7"/>
  <circle cx="10.2" cy="4.8" r=".7"/>
  <circle cx="4.8" cy="4.8" r=".7"/>
  <circle cx="10.2" cy="10.2" r=".7"/>
  <path d="M12.7,1c.8,0,1.3.7,1.3,1.5v10.2c0,.7-.6,1.3-1.3,1.3h-.2s-10,0-10,0h-.2c-.7,0-1.3-.6-1.3-1.3v-.2s0-10,0-10c0-.8.6-1.4,1.3-1.5h.2s10,0,10,0h.2ZM2.5,2c-.3,0-.5.2-.5.5v10c0,.3.2.5.5.5h10c.3,0,.5-.2.5-.5V2.5c0-.3-.2-.5-.5-.5H2.5Z"/>
</svg>