<?xml version="1.0" encoding="UTF-8"?>
<svg id="Layer_2" data-name="Layer 2" xmlns="http://www.w3.org/2000/svg" viewBox="0 0 724.17 125.56">
  <defs>
    <style>
      .cls-1 {
        fill: none;
      }
    </style>
  </defs>
  <path class="cls-1" d="M134.35,60.38c-3.54-2.1-7.63-3.15-12.27-3.15s-8.71,1.05-12.19,3.15c-3.48,2.1-6.25,5-8.29,8.71-2.05,3.71-3.07,8.1-3.07,13.19s1.02,9.35,3.07,13.1c2.05,3.76,4.81,6.69,8.29,8.79,3.48,2.1,7.55,3.15,12.19,3.15s8.73-1.05,12.27-3.15c3.54-2.1,6.3-5.03,8.29-8.79,1.99-3.76,2.99-8.13,2.99-13.1s-1-9.48-2.99-13.19c-1.99-3.7-4.76-6.61-8.29-8.71Z"/>
  <path class="cls-1" d="M330.9,60.38c-3.54-2.1-7.63-3.15-12.27-3.15s-8.71,1.05-12.19,3.15c-3.48,2.1-6.25,5-8.29,8.71-2.05,3.71-3.07,8.1-3.07,13.19s1.02,9.35,3.07,13.1c2.05,3.76,4.81,6.69,8.29,8.79,3.48,2.1,7.55,3.15,12.19,3.15s8.73-1.05,12.27-3.15c3.54-2.1,6.3-5.03,8.29-8.79,1.99-3.76,2.99-8.13,2.99-13.1s-1-9.48-2.99-13.19c-1.99-3.7-4.76-6.61-8.29-8.71Z"/>
  <path class="cls-1" d="M674.08,91.14c-2.65,2.05-3.98,4.73-3.98,8.04,0,3.65,1.22,6.41,3.65,8.29,2.43,1.88,5.86,2.82,10.28,2.82,6.3,0,11.31-1.77,15.01-5.31,3.7-3.54,5.56-8.46,5.56-14.76v-4.31l-17.09,1.33c-6.3.55-10.78,1.85-13.43,3.9Z"/>
  <path d="M46.94,76.63l-14.76-3.48c-7.08-1.66-10.62-4.75-10.62-9.29,0-2.99,1.1-5.36,3.32-7.13,2.21-1.77,5.31-2.65,9.29-2.65s7.08,1.02,9.29,3.07c2.21,2.05,3.32,4.84,3.32,8.38h19.24c-.11-5.31-1.47-9.95-4.06-13.93-2.6-3.98-6.22-7.08-10.86-9.29-4.64-2.21-10.01-3.32-16.09-3.32s-11.89,1.02-16.75,3.07c-4.87,2.05-8.71,5-11.53,8.87-2.82,3.87-4.23,8.46-4.23,13.77,0,6.53,1.8,11.64,5.39,15.34,3.59,3.71,9.09,6.39,16.5,8.04l14.76,3.48c3.65.77,6.14,1.94,7.46,3.48,1.33,1.55,1.99,3.32,1.99,5.31,0,2.99-1.24,5.36-3.73,7.13-2.49,1.77-6.17,2.65-11.03,2.65-4.54,0-8.07-1.05-10.62-3.15-2.54-2.1-3.87-4.92-3.98-8.46H0c0,8.07,3.01,14.6,9.04,19.57,6.03,4.98,14.12,7.46,24.3,7.46,6.74,0,12.71-1.08,17.91-3.23,5.2-2.16,9.23-5.25,12.11-9.29,2.87-4.04,4.31-8.82,4.31-14.35,0-6.3-1.74-11.17-5.22-14.6-3.48-3.43-8.65-5.91-15.51-7.46Z"/>
  <path d="M144.72,44.62c-6.58-3.65-14.13-5.47-22.64-5.47s-15.92,1.82-22.56,5.47c-6.63,3.65-11.83,8.71-15.59,15.18-3.76,6.47-5.64,13.96-5.64,22.47s1.88,16.01,5.64,22.48c3.76,6.47,8.96,11.53,15.59,15.18,6.63,3.65,14.15,5.47,22.56,5.47s16.06-1.82,22.64-5.47c6.58-3.65,11.75-8.71,15.51-15.18,3.76-6.47,5.64-13.96,5.64-22.48s-1.88-16.01-5.64-22.47c-3.76-6.47-8.93-11.53-15.51-15.18ZM142.65,95.37c-1.99,3.76-4.76,6.69-8.29,8.79-3.54,2.1-7.63,3.15-12.27,3.15s-8.71-1.05-12.19-3.15c-3.48-2.1-6.25-5.03-8.29-8.79-2.05-3.76-3.07-8.13-3.07-13.1s1.02-9.48,3.07-13.19c2.05-3.7,4.81-6.61,8.29-8.71,3.48-2.1,7.55-3.15,12.19-3.15s8.73,1.05,12.27,3.15c3.54,2.1,6.3,5,8.29,8.71,1.99,3.71,2.99,8.1,2.99,13.19s-1,9.35-2.99,13.1Z"/>
  <path d="M228.56,38.98c-5.53,0-10.64,1.16-15.34,3.48-4.7,2.32-8.32,5.53-10.86,9.62l-1.66-10.62h-18.74v81.94h20.24v-44.12c0-6.63,1.77-11.94,5.31-15.92,3.54-3.98,8.46-5.97,14.76-5.97,5.31,0,9.51,1.69,12.61,5.06,3.09,3.37,4.64,8.49,4.64,15.34v45.61h20.24v-50.42c0-10.5-2.63-18.8-7.88-24.88-5.25-6.08-13.02-9.12-23.3-9.12Z"/>
  <path d="M341.27,44.62c-6.58-3.65-14.13-5.47-22.64-5.47s-15.92,1.82-22.56,5.47c-6.63,3.65-11.83,8.71-15.59,15.18-3.76,6.47-5.64,13.96-5.64,22.47s1.88,16.01,5.64,22.48c3.76,6.47,8.96,11.53,15.59,15.18,6.63,3.65,14.15,5.47,22.56,5.47s16.06-1.82,22.64-5.47c6.58-3.65,11.75-8.71,15.51-15.18,3.76-6.47,5.64-13.96,5.64-22.48s-1.88-16.01-5.64-22.47c-3.76-6.47-8.93-11.53-15.51-15.18ZM339.2,95.37c-1.99,3.76-4.76,6.69-8.29,8.79-3.54,2.1-7.63,3.15-12.27,3.15s-8.71-1.05-12.19-3.15c-3.48-2.1-6.25-5.03-8.29-8.79-2.05-3.76-3.07-8.13-3.07-13.1s1.02-9.48,3.07-13.19c2.05-3.7,4.81-6.61,8.29-8.71,3.48-2.1,7.55-3.15,12.19-3.15s8.73,1.05,12.27,3.15c3.54,2.1,6.3,5,8.29,8.71,1.99,3.71,2.99,8.1,2.99,13.19s-1,9.35-2.99,13.1Z"/>
  <path d="M474.54,38.98c-7.19,0-13.3,1.88-18.33,5.64-3.61,2.7-6.22,6.04-7.87,9.99,0,.01-.01.02-.02.04-1.84-3.97-4.4-7.31-7.71-10.02-4.59-3.76-10.48-5.64-17.66-5.64-6.63,0-12.16,1.52-16.59,4.56-3.33,2.29-5.87,4.84-7.63,7.65l-1.66-9.73h-18.58v81.94h20.24v-46.44c0-4.42.77-8.1,2.32-11.03,1.55-2.93,3.65-5.09,6.3-6.47,2.65-1.38,5.58-2.07,8.79-2.07,4.75,0,8.57,1.49,11.45,4.48,2.87,2.99,4.31,7.36,4.31,13.1v48.43h20.24v-46.44c0-4.53.77-8.24,2.32-11.11,1.55-2.87,3.62-5.03,6.22-6.47,2.6-1.44,5.44-2.16,8.54-2.16,4.86,0,8.76,1.52,11.69,4.56,2.93,3.04,4.4,7.49,4.4,13.35v48.27h20.07v-53.58c0-9.4-2.65-16.89-7.96-22.48-5.31-5.58-12.94-8.38-22.89-8.38Z"/>
  <rect x="448.35" width="97.19" height="10.12"/>
  <rect x="525.3" y="41.47" width="20.24" height="81.94"/>
  <polygon points="618.68 41.47 586.83 75.8 586.83 0 566.76 0 566.76 123.41 586.83 123.41 586.83 101.35 598.78 88.91 620.17 123.41 643.39 123.41 612.87 73.98 644.06 41.47 618.68 41.47"/>
  <path d="M719.86,54.49c-2.88-5.14-6.97-9.01-12.27-11.61-5.31-2.6-11.67-3.9-19.08-3.9s-13.74,1.22-19.32,3.65c-5.59,2.43-9.9,5.83-12.94,10.2-3.04,4.37-4.56,9.54-4.56,15.51h17.25c0-4.31,1.6-7.66,4.81-10.04,3.21-2.38,7.8-3.57,13.77-3.57,3.43,0,6.41.53,8.96,1.58,2.54,1.05,4.5,2.71,5.89,4.98,1.38,2.27,2.07,5.28,2.07,9.04v1.83l-24.55,1.99c-9.73.78-17.22,3.4-22.48,7.88-5.25,4.48-7.88,10.48-7.88,18s2.51,13.8,7.55,18.49c5.03,4.7,11.86,7.05,20.49,7.05,6.41,0,12.13-1.33,17.17-3.98,5.03-2.65,8.43-6.08,10.2-10.28l1.49,12.11h17.75v-49.76c0-7.63-1.44-14.02-4.31-19.16ZM704.6,90.23c0,6.3-1.85,11.22-5.56,14.76-3.71,3.54-8.71,5.31-15.01,5.31-4.42,0-7.85-.94-10.28-2.82-2.43-1.88-3.65-4.64-3.65-8.29,0-3.32,1.33-6,3.98-8.04,2.65-2.04,7.13-3.34,13.43-3.9l17.09-1.33v4.31Z"/>
</svg>